<?xml version="1.0" encoding="UTF-8"?>
<svg width="700pt" height="700pt" version="1.1" viewBox="0 0 700 700" xmlns="http://www.w3.org/2000/svg" xmlns:xlink="http://www.w3.org/1999/xlink">
 <defs>
  <symbol id="t" overflow="visible">
   <path d="m18.953-1.125c-0.98047 0.5-2 0.88281-3.0625 1.1406-1.0547 0.25781-2.1562 0.39062-3.3125 0.39062-3.4375 0-6.1641-0.95703-8.1719-2.875-2-1.9258-3-4.5312-3-7.8125 0-3.3008 1-5.9102 3-7.8281 2.0078-1.9141 4.7344-2.875 8.1719-2.875 1.1562 0 2.2578 0.13281 3.3125 0.39062 1.0625 0.25 2.082 0.63281 3.0625 1.1406v4.2656c-0.99219-0.67578-1.9648-1.1719-2.9219-1.4844-0.96094-0.3125-1.9648-0.46875-3.0156-0.46875-1.9062 0-3.4023 0.60938-4.4844 1.8281-1.0859 1.2188-1.625 2.8984-1.625 5.0312 0 2.125 0.53906 3.7969 1.625 5.0156 1.082 1.2109 2.5781 1.8125 4.4844 1.8125 1.0508 0 2.0547-0.15625 3.0156-0.46875 0.95703-0.3125 1.9297-0.80469 2.9219-1.4844z"/>
  </symbol>
  <symbol id="b" overflow="visible">
   <path d="m13.859-11.25c-0.42969-0.20703-0.85547-0.35938-1.2812-0.45312-0.42969-0.09375-0.85938-0.14062-1.2969-0.14062-1.2734 0-2.25 0.40625-2.9375 1.2188s-1.0312 1.9805-1.0312 3.5v7.125h-4.9375v-15.469h4.9375v2.5469c0.63281-1.0078 1.3633-1.75 2.1875-2.2188 0.83203-0.46875 1.8203-0.70312 2.9688-0.70312 0.16406 0 0.34375 0.011719 0.53125 0.03125 0.19531 0.011719 0.47656 0.039062 0.84375 0.078125z"/>
  </symbol>
  <symbol id="a" overflow="visible">
   <path d="m17.812-7.7812v1.4219h-11.562c0.125 1.1562 0.54688 2.0273 1.2656 2.6094 0.71875 0.57422 1.7188 0.85938 3 0.85938 1.0391 0 2.1094-0.14844 3.2031-0.45312 1.0938-0.3125 2.2109-0.78125 3.3594-1.4062v3.8125c-1.168 0.4375-2.3359 0.77344-3.5 1-1.168 0.22656-2.3398 0.34375-3.5156 0.34375-2.793 0-4.9648-0.70703-6.5156-2.125-1.5547-1.4258-2.3281-3.4258-2.3281-6 0-2.5195 0.75781-4.5039 2.2812-5.9531 1.5195-1.4453 3.6172-2.1719 6.2969-2.1719 2.4258 0 4.3672 0.73438 5.8281 2.2031 1.457 1.4609 2.1875 3.4141 2.1875 5.8594zm-5.0781-1.6406c0-0.9375-0.27734-1.6914-0.82812-2.2656-0.54297-0.57031-1.2578-0.85938-2.1406-0.85938-0.96094 0-1.7422 0.27344-2.3438 0.8125-0.59375 0.53125-0.96484 1.3047-1.1094 2.3125z"/>
  </symbol>
  <symbol id="g" overflow="visible">
   <path d="m9.3125-6.9531c-1.0312 0-1.8086 0.17969-2.3281 0.53125-0.52344 0.34375-0.78125 0.85547-0.78125 1.5312 0 0.625 0.20703 1.1172 0.625 1.4688 0.41406 0.35547 1 0.53125 1.75 0.53125 0.92578 0 1.707-0.33203 2.3438-1 0.63281-0.66406 0.95312-1.5 0.95312-2.5v-0.5625zm7.5469-1.875v8.8281h-4.9844v-2.2969c-0.66797 0.9375-1.418 1.625-2.25 2.0625-0.82422 0.42578-1.8281 0.64062-3.0156 0.64062-1.5938 0-2.8906-0.46875-3.8906-1.4062s-1.5-2.1484-1.5-3.6406c0-1.8125 0.61719-3.1406 1.8594-3.9844 1.25-0.85156 3.2109-1.2812 5.8906-1.2812h2.9062v-0.375c0-0.78906-0.30859-1.3633-0.92188-1.7188-0.61719-0.36328-1.5781-0.54688-2.8906-0.54688-1.0625 0-2.0469 0.10547-2.9531 0.3125-0.90625 0.21094-1.7578 0.52734-2.5469 0.95312v-3.7656c1.0625-0.25781 2.125-0.45703 3.1875-0.59375 1.0703-0.13281 2.1445-0.20312 3.2188-0.20312 2.7812 0 4.7891 0.55469 6.0312 1.6562 1.2383 1.1055 1.8594 2.8906 1.8594 5.3594z"/>
  </symbol>
  <symbol id="d" overflow="visible">
   <path d="m7.7812-19.859v4.3906h5.0938v3.5312h-5.0938v6.5625c0 0.71875 0.14062 1.2109 0.42188 1.4688 0.28125 0.25 0.84766 0.375 1.7031 0.375h2.5312v3.5312h-4.2344c-1.9492 0-3.3359-0.40625-4.1562-1.2188-0.8125-0.8125-1.2188-2.1953-1.2188-4.1562v-6.5625h-2.4531v-3.5312h2.4531v-4.3906z"/>
  </symbol>
  <symbol id="f" overflow="visible">
   <path d="m12.891-13.203v-8.2812h4.9844v21.484h-4.9844v-2.2344c-0.67969 0.90625-1.4297 1.5742-2.25 2-0.8125 0.42578-1.7617 0.64062-2.8438 0.64062-1.9062 0-3.4766-0.75391-4.7031-2.2656-1.2188-1.5195-1.8281-3.4727-1.8281-5.8594 0-2.3828 0.60938-4.332 1.8281-5.8438 1.2266-1.5195 2.7969-2.2812 4.7031-2.2812 1.0703 0 2.0195 0.21484 2.8438 0.64062 0.82031 0.42969 1.5703 1.0938 2.25 2zm-3.25 10.016c1.0625 0 1.8672-0.38281 2.4219-1.1562 0.55078-0.78125 0.82812-1.9062 0.82812-3.375s-0.27734-2.5859-0.82812-3.3594c-0.55469-0.78125-1.3594-1.1719-2.4219-1.1719-1.0547 0-1.8594 0.39062-2.4219 1.1719-0.55469 0.77344-0.82812 1.8906-0.82812 3.3594s0.27344 2.5938 0.82812 3.375c0.5625 0.77344 1.3672 1.1562 2.4219 1.1562z"/>
  </symbol>
  <symbol id="j" overflow="visible">
   <path d="m10.609-3.1875c1.0508 0 1.8516-0.38281 2.4062-1.1562 0.5625-0.78125 0.84375-1.9062 0.84375-3.375s-0.28125-2.5859-0.84375-3.3594c-0.55469-0.78125-1.3555-1.1719-2.4062-1.1719-1.0625 0-1.8828 0.39062-2.4531 1.1719-0.5625 0.77344-0.84375 1.8906-0.84375 3.3594 0 1.4609 0.28125 2.5781 0.84375 3.3594 0.57031 0.78125 1.3906 1.1719 2.4531 1.1719zm-3.2969-10.016c0.6875-0.90625 1.4414-1.5703 2.2656-2 0.83203-0.42578 1.7852-0.64062 2.8594-0.64062 1.9062 0 3.4688 0.76172 4.6875 2.2812 1.2266 1.5117 1.8438 3.4609 1.8438 5.8438 0 2.3867-0.61719 4.3398-1.8438 5.8594-1.2188 1.5117-2.7812 2.2656-4.6875 2.2656-1.0742 0-2.0273-0.21484-2.8594-0.64062-0.82422-0.4375-1.5781-1.1016-2.2656-2v2.2344h-4.9375v-21.484h4.9375z"/>
  </symbol>
  <symbol id="i" overflow="visible">
   <path d="m0.34375-15.469h4.9375l4.1719 10.5 3.5312-10.5h4.9375l-6.5 16.938c-0.65625 1.7188-1.4219 2.9219-2.2969 3.6094-0.86719 0.6875-2.0117 1.0312-3.4375 1.0312h-2.8594v-3.25h1.5469c0.84375 0 1.4531-0.13672 1.8281-0.40625 0.38281-0.26172 0.67969-0.74219 0.89062-1.4375l0.14062-0.42188z"/>
  </symbol>
  <symbol id="h" overflow="visible">
   <path d="m10.156-11.469c1.1133 0 1.9102-0.20703 2.3906-0.625 0.47656-0.41406 0.71875-1.0977 0.71875-2.0469 0-0.9375-0.24219-1.6094-0.71875-2.0156-0.48047-0.40625-1.2773-0.60938-2.3906-0.60938h-2.25v5.2969zm-2.25 3.6719v7.7969h-5.3125v-20.609h8.125c2.7188 0 4.707 0.45312 5.9688 1.3594 1.2695 0.90625 1.9062 2.3516 1.9062 4.3281 0 1.3555-0.33594 2.4688-1 3.3438-0.65625 0.875-1.6484 1.5234-2.9688 1.9375 0.72656 0.16797 1.3789 0.54297 1.9531 1.125 0.57031 0.58594 1.1562 1.4688 1.75 2.6562l2.8906 5.8594h-5.6719l-2.5156-5.125c-0.5-1.0312-1.0117-1.7344-1.5312-2.1094-0.52344-0.375-1.2148-0.5625-2.0781-0.5625z"/>
  </symbol>
  <symbol id="s" overflow="visible">
   <path d="m2.375-15.469h4.9375v15.469h-4.9375zm0-6.0156h4.9375v4.0312h-4.9375z"/>
  </symbol>
  <symbol id="e" overflow="visible">
   <path d="m14.875-14.984v4.0312c-0.67969-0.45703-1.3555-0.79688-2.0312-1.0156-0.67969-0.21875-1.375-0.32812-2.0938-0.32812-1.3867 0-2.4648 0.40234-3.2344 1.2031-0.77344 0.80469-1.1562 1.9297-1.1562 3.375 0 1.4492 0.38281 2.5742 1.1562 3.375 0.76953 0.80469 1.8477 1.2031 3.2344 1.2031 0.76953 0 1.5-0.11328 2.1875-0.34375 0.69531-0.22656 1.3438-0.56641 1.9375-1.0156v4.0469c-0.77344 0.28125-1.5586 0.49219-2.3594 0.64062-0.79297 0.14453-1.5898 0.21875-2.3906 0.21875-2.793 0-4.9766-0.71094-6.5469-2.1406-1.5742-1.4375-2.3594-3.4297-2.3594-5.9844 0-2.5508 0.78516-4.5391 2.3594-5.9688 1.5703-1.4375 3.7539-2.1562 6.5469-2.1562 0.8125 0 1.6094 0.074219 2.3906 0.21875 0.78906 0.14844 1.5781 0.35938 2.3594 0.64062z"/>
  </symbol>
  <symbol id="c" overflow="visible">
   <path d="m9.7344-12.297c-1.0938 0-1.9336 0.39844-2.5156 1.1875-0.57422 0.78125-0.85938 1.9141-0.85938 3.3906 0 1.4805 0.28516 2.6172 0.85938 3.4062 0.58203 0.78125 1.4219 1.1719 2.5156 1.1719 1.0703 0 1.8945-0.39062 2.4688-1.1719 0.57031-0.78906 0.85938-1.9258 0.85938-3.4062 0-1.4766-0.28906-2.6094-0.85938-3.3906-0.57422-0.78906-1.3984-1.1875-2.4688-1.1875zm0-3.5469c2.6562 0 4.7344 0.71875 6.2344 2.1562s2.25 3.4297 2.25 5.9688c0 2.543-0.75 4.5312-2.25 5.9688s-3.5781 2.1562-6.2344 2.1562c-2.668 0-4.7578-0.71875-6.2656-2.1562-1.5-1.4375-2.25-3.4258-2.25-5.9688 0-2.5391 0.75-4.5312 2.25-5.9688 1.5078-1.4375 3.5977-2.1562 6.2656-2.1562z"/>
  </symbol>
  <symbol id="r" overflow="visible">
   <path d="m12.547-21.484v3.25h-2.7344c-0.69922 0-1.1875 0.125-1.4688 0.375-0.27344 0.25-0.40625 0.6875-0.40625 1.3125v1.0781h4.2344v3.5312h-4.2344v11.938h-4.9375v-11.938h-2.4688v-3.5312h2.4688v-1.0781c0-1.6875 0.46875-2.9297 1.4062-3.7344 0.9375-0.80078 2.3906-1.2031 4.3594-1.2031z"/>
  </symbol>
  <symbol id="q" overflow="visible">
   <path d="m16.703-12.891c0.625-0.95703 1.3672-1.6875 2.2344-2.1875 0.86328-0.50781 1.8125-0.76562 2.8438-0.76562 1.7695 0 3.1172 0.55469 4.0469 1.6562 0.9375 1.0938 1.4062 2.6836 1.4062 4.7656v9.4219h-4.9688v-8.0625c0.007813-0.125 0.015625-0.25 0.015625-0.375v-0.54688c0-1.1016-0.16406-1.8984-0.48438-2.3906-0.3125-0.48828-0.82812-0.73438-1.5469-0.73438-0.94922 0-1.6797 0.38672-2.1875 1.1562-0.51172 0.77344-0.77344 1.8906-0.78125 3.3594v7.5938h-4.9844v-8.0625c0-1.7188-0.14844-2.8203-0.4375-3.3125-0.29297-0.48828-0.82031-0.73438-1.5781-0.73438-0.94922 0-1.6836 0.39062-2.2031 1.1719-0.51172 0.77344-0.76562 1.8828-0.76562 3.3281v7.6094h-4.9688v-15.469h4.9688v2.2656c0.61328-0.875 1.3125-1.5312 2.0938-1.9688 0.78906-0.44531 1.6602-0.67188 2.6094-0.67188 1.0625 0 2.0039 0.26172 2.8281 0.78125 0.82031 0.51172 1.4414 1.2344 1.8594 2.1719z"/>
  </symbol>
  <symbol id="p" overflow="visible">
   <path d="m17.922-9.4219v9.4219h-4.9688v-7.1875c0-1.3438-0.03125-2.2695-0.09375-2.7812-0.054687-0.50781-0.15625-0.88281-0.3125-1.125-0.1875-0.32031-0.44922-0.57031-0.78125-0.75-0.33594-0.17578-0.71094-0.26562-1.125-0.26562-1.0312 0-1.8438 0.40234-2.4375 1.2031-0.59375 0.79297-0.89062 1.8906-0.89062 3.2969v7.6094h-4.9375v-21.484h4.9375v8.2812c0.75-0.90625 1.5391-1.5703 2.375-2 0.84375-0.42578 1.7695-0.64062 2.7812-0.64062 1.7891 0 3.1445 0.55469 4.0625 1.6562 0.92578 1.0938 1.3906 2.6836 1.3906 4.7656z"/>
  </symbol>
  <symbol id="o" overflow="visible">
   <path d="m2.5938-20.609h5.9375l7.5 14.141v-14.141h5.0469v20.609h-5.9375l-7.5-14.141v14.141h-5.0469z"/>
  </symbol>
  <symbol id="n" overflow="visible">
   <path d="m2.2031-6.0156v-9.4531h4.9844v1.5469c0 0.84375-0.007812 1.9023-0.015625 3.1719-0.011719 1.2617-0.015625 2.1016-0.015625 2.5156 0 1.25 0.03125 2.1523 0.09375 2.7031 0.0625 0.54297 0.17188 0.9375 0.32812 1.1875 0.20703 0.32422 0.47266 0.57422 0.79688 0.75 0.32031 0.16797 0.69531 0.25 1.125 0.25 1.0312 0 1.8359-0.39453 2.4219-1.1875 0.59375-0.78906 0.89062-1.8906 0.89062-3.2969v-7.6406h4.9531v15.469h-4.9531v-2.2344c-0.74219 0.89844-1.5273 1.5625-2.3594 2-0.83594 0.42578-1.7578 0.64062-2.7656 0.64062-1.7812 0-3.1406-0.54688-4.0781-1.6406-0.9375-1.1016-1.4062-2.6953-1.4062-4.7812z"/>
  </symbol>
  <symbol id="m" overflow="visible">
   <path d="m17.922-9.4219v9.4219h-4.9688v-7.2031c0-1.332-0.03125-2.2539-0.09375-2.7656-0.054687-0.50781-0.15625-0.88281-0.3125-1.125-0.1875-0.32031-0.44922-0.57031-0.78125-0.75-0.33594-0.17578-0.71094-0.26562-1.125-0.26562-1.0312 0-1.8438 0.40234-2.4375 1.2031-0.59375 0.79297-0.89062 1.8906-0.89062 3.2969v7.6094h-4.9375v-15.469h4.9375v2.2656c0.75-0.90625 1.5391-1.5703 2.375-2 0.84375-0.42578 1.7695-0.64062 2.7812-0.64062 1.7891 0 3.1445 0.55469 4.0625 1.6562 0.92578 1.0938 1.3906 2.6836 1.3906 4.7656z"/>
  </symbol>
  <symbol id="l" overflow="visible">
   <path d="m2.5938-20.609h8.8281c2.625 0 4.6328 0.58594 6.0312 1.75 1.4062 1.1562 2.1094 2.8125 2.1094 4.9688 0 2.168-0.70312 3.8359-2.1094 5-1.3984 1.1562-3.4062 1.7344-6.0312 1.7344h-3.5156v7.1562h-5.3125zm5.3125 3.8438v5.7656h2.9531c1.0312 0 1.8203-0.25 2.375-0.75 0.5625-0.50781 0.84375-1.2227 0.84375-2.1406 0-0.91406-0.28125-1.625-0.84375-2.125-0.55469-0.5-1.3438-0.75-2.375-0.75z"/>
  </symbol>
  <symbol id="k" overflow="visible">
   <path d="m2.375-15.469h4.9375v15.188c0 2.0703-0.49609 3.6562-1.4844 4.75-0.99219 1.0938-2.4336 1.6406-4.3281 1.6406h-2.4375v-3.25h0.85938c0.9375 0 1.5781-0.21484 1.9219-0.64062 0.35156-0.41797 0.53125-1.25 0.53125-2.5zm0-6.0156h4.9375v4.0312h-4.9375z"/>
  </symbol>
 </defs>
 <g>
  <path d="m530.9 26.926h-29.02-4.1875-324.4c-23.363 0.03125-45.762 9.3242-62.285 25.844-16.52 16.523-25.812 38.922-25.844 62.285v329.89c0.03125 23.363 9.3242 45.762 25.844 62.285 16.523 16.52 38.922 25.812 62.285 25.844h324.4 4.1875 29.02c22.258-0.015625 43.602-8.8633 59.34-24.602 15.738-15.738 24.586-37.082 24.602-59.34v-338.27c-0.015625-22.258-8.8633-43.602-24.602-59.34-15.738-15.738-37.082-24.586-59.34-24.602zm37.391 417.96h-0.003906c-0.011718 18.723-7.4531 36.676-20.688 49.918-13.234 13.246-31.18 20.699-49.906 20.73h-324.4c-18.723-0.015624-36.676-7.457-49.922-20.688-13.242-13.234-20.699-31.184-20.73-49.906v-329.89c0.03125-18.723 7.4883-36.672 20.73-49.906 13.246-13.23 31.199-20.672 49.922-20.688h324.4c18.715 0.03125 36.652 7.4766 49.887 20.711 13.23 13.23 20.68 31.168 20.707 49.883z"/>
  <path d="m335.46 419.55c-6.7031 0-13.137 2.6641-17.879 7.4062-4.7422 4.7422-7.4023 11.172-7.4023 17.879s2.6602 13.137 7.4023 17.879c4.7422 4.7422 11.176 7.4062 17.879 7.4062 6.707 0 13.141-2.6641 17.879-7.4062 4.7422-4.7422 7.4062-11.172 7.4062-17.879-0.011719-6.6992-2.6836-13.125-7.4219-17.863s-11.16-7.4062-17.863-7.4219zm0 31.562c-2.5547 0.09375-4.9141-1.375-5.957-3.7148-1.043-2.3359-0.56641-5.0742 1.2109-6.9141 1.7773-1.8438 4.4961-2.4258 6.8672-1.4688 2.375 0.95703 3.9297 3.2617 3.9336 5.8203 0 3.3828-2.6758 6.1562-6.0547 6.2773z"/>
  <path d="m506.69 436.07h-102.16c-4.8398 0-8.7656 3.9219-8.7656 8.7656s3.9258 8.7695 8.7656 8.7695h102.16c4.8398 0 8.7656-3.9258 8.7656-8.7695s-3.9258-8.7656-8.7656-8.7656z"/>
  <path d="m266.45 436.07h-102.16c-4.8438 0-8.7695 3.9219-8.7695 8.7656s3.9258 8.7695 8.7695 8.7695h102.16c4.8398 0 8.7656-3.9258 8.7656-8.7695s-3.9258-8.7656-8.7656-8.7656z"/>
  <path d="m447.57 243.8h2.8867v112.57c0 4.8438 3.9258 8.7695 8.7656 8.7695 4.8438 0 8.7695-3.9258 8.7695-8.7695v-112.57h2.8867-0.003906c6.9297-0.015625 13.566-2.7734 18.465-7.668 4.8984-4.8984 7.6562-11.539 7.6719-18.465v-2.0938c-0.015625-6.9258-2.7734-13.562-7.6719-18.461s-11.535-7.6562-18.465-7.6719h-2.8867l0.003906-66.406c0-4.8438-3.9258-8.7695-8.7695-8.7695-4.8398 0-8.7656 3.9258-8.7656 8.7695v66.406h-2.8867c-6.9258 0.015625-13.562 2.7734-18.461 7.6719-4.8984 4.8984-7.6562 11.535-7.6719 18.461v2.0938c0.015625 6.9258 2.7734 13.566 7.6719 18.465 4.8984 4.8945 11.535 7.6523 18.461 7.668z"/>
  <path d="m200.1 200.47h2.8867l-0.003906 155.89c0 4.8438 3.9258 8.7695 8.7695 8.7695s8.7656-3.9258 8.7656-8.7695v-155.89h2.8867c6.9258-0.015625 13.566-2.7734 18.461-7.6719 4.8984-4.8984 7.6562-11.535 7.6719-18.461v-2.0938c-0.015624-6.9258-2.7734-13.566-7.6719-18.461-4.8945-4.8984-11.535-7.6562-18.461-7.6719h-2.8867v-23.078c0-4.8438-3.9219-8.7695-8.7656-8.7695s-8.7695 3.9258-8.7695 8.7695v23.078h-2.8828c-6.9258 0.015625-13.566 2.7734-18.465 7.6719-4.8945 4.8945-7.6523 11.535-7.668 18.461v2.0938c0.015625 6.9258 2.7734 13.562 7.668 18.461 4.8984 4.8984 11.539 7.6562 18.465 7.6719z"/>
  <path d="m347.17 276.27h-2.8867v-153.23c0-4.8438-3.9219-8.7695-8.7656-8.7695s-8.7695 3.9258-8.7695 8.7695v153.23h-2.8867 0.003907c-6.9258 0.015625-13.566 2.7734-18.465 7.6719-4.8945 4.8984-7.6523 11.535-7.668 18.461v2.0938c0.015625 6.9258 2.7734 13.566 7.668 18.465 4.8984 4.8945 11.539 7.6523 18.465 7.668h2.8867l-0.003906 25.738c0 4.8438 3.9258 8.7695 8.7695 8.7695s8.7656-3.9258 8.7656-8.7695v-25.738h2.8867c6.9258-0.015625 13.566-2.7734 18.461-7.668 4.8984-4.8984 7.6562-11.539 7.6719-18.465v-2.0938c-0.015626-6.9258-2.7734-13.562-7.6719-18.461-4.8945-4.8984-11.535-7.6562-18.461-7.6719z"/>
  <use x="70" y="644.847656" xlink:href="#t"/>
  <use x="90.757812" y="644.847656" xlink:href="#b"/>
  <use x="104.703125" y="644.847656" xlink:href="#a"/>
  <use x="123.886719" y="644.847656" xlink:href="#g"/>
  <use x="142.972656" y="644.847656" xlink:href="#d"/>
  <use x="156.492188" y="644.847656" xlink:href="#a"/>
  <use x="175.675781" y="644.847656" xlink:href="#f"/>
  <use x="205.765625" y="644.847656" xlink:href="#j"/>
  <use x="226.011719" y="644.847656" xlink:href="#i"/>
  <use x="254.292969" y="644.847656" xlink:href="#h"/>
  <use x="276.074219" y="644.847656" xlink:href="#s"/>
  <use x="285.765625" y="644.847656" xlink:href="#e"/>
  <use x="302.53125" y="644.847656" xlink:href="#e"/>
  <use x="319.296875" y="644.847656" xlink:href="#g"/>
  <use x="338.382812" y="644.847656" xlink:href="#b"/>
  <use x="352.332031" y="644.847656" xlink:href="#f"/>
  <use x="372.578125" y="644.847656" xlink:href="#c"/>
  <use x="70" y="673.132812" xlink:href="#r"/>
  <use x="82.304688" y="673.132812" xlink:href="#b"/>
  <use x="96.253906" y="673.132812" xlink:href="#c"/>
  <use x="115.683594" y="673.132812" xlink:href="#q"/>
  <use x="155" y="673.132812" xlink:href="#d"/>
  <use x="168.519531" y="673.132812" xlink:href="#p"/>
  <use x="188.65625" y="673.132812" xlink:href="#a"/>
  <use x="217.683594" y="673.132812" xlink:href="#o"/>
  <use x="241.355469" y="673.132812" xlink:href="#c"/>
  <use x="260.785156" y="673.132812" xlink:href="#n"/>
  <use x="280.917969" y="673.132812" xlink:href="#m"/>
  <use x="310.902344" y="673.132812" xlink:href="#l"/>
  <use x="331.628906" y="673.132812" xlink:href="#b"/>
  <use x="345.578125" y="673.132812" xlink:href="#c"/>
  <use x="365.007813" y="673.132812" xlink:href="#k"/>
  <use x="374.703125" y="673.132812" xlink:href="#a"/>
  <use x="393.886719" y="673.132812" xlink:href="#e"/>
  <use x="410.652344" y="673.132812" xlink:href="#d"/>
 </g>
</svg>
